
<svg version="1.0" xmlns="http://www.w3.org/2000/svg"
 width="512.000000pt" height="512.000000pt" viewBox="0 0 512.000000 512.000000"
 preserveAspectRatio="xMidYMid meet">
<metadata>
Created by potrace 1.16, written by Peter Selinger 2001-2019
</metadata>
<g transform="translate(0.000000,512.000000) scale(0.100000,-0.100000)"
fill="#000000" stroke="none">
<path d="M3287 4940 c-19 -15 -35 -50 -63 -139 -49 -159 -51 -160 -189 -86
-138 74 -161 74 -243 0 -88 -80 -124 -129 -124 -169 0 -21 20 -71 56 -138 75
-141 75 -142 -85 -193 -160 -51 -159 -50 -159 -215 0 -165 -1 -164 159 -215
160 -51 160 -52 85 -193 -36 -67 -56 -117 -56 -138 0 -40 36 -89 124 -169 82
-74 105 -74 243 0 138 74 140 73 189 -86 50 -159 50 -159 216 -159 166 0 166
0 216 159 49 160 51 160 190 86 151 -81 161 -79 275 34 84 84 89 92 89 131 0
32 -13 67 -55 145 -74 138 -73 140 86 189 159 50 159 50 159 216 0 166 0 166
-159 216 -160 49 -160 51 -85 191 36 68 56 117 56 139 0 40 -35 88 -124 169
-82 74 -104 74 -242 0 -139 -74 -141 -74 -190 86 -50 159 -50 159 -216 159
-112 0 -130 -2 -153 -20z m227 -264 c20 -62 42 -118 48 -124 23 -18 162 -72
186 -72 13 0 68 24 122 53 104 54 118 56 144 13 9 -14 0 -37 -41 -116 -29 -55
-53 -110 -53 -122 0 -25 54 -163 71 -185 6 -7 62 -29 125 -48 l114 -36 0 -39
0 -39 -114 -36 c-63 -19 -119 -41 -125 -48 -17 -22 -71 -160 -71 -185 0 -12
24 -67 53 -122 41 -79 50 -102 41 -116 -26 -43 -40 -41 -144 14 -54 28 -109
52 -122 52 -24 0 -163 -54 -186 -72 -6 -6 -28 -62 -48 -124 l-35 -114 -39 0
-39 0 -35 114 c-20 62 -42 118 -49 124 -22 18 -160 72 -185 72 -12 0 -67 -24
-122 -52 -79 -42 -102 -51 -116 -42 -43 26 -41 40 14 144 28 54 52 109 52 122
0 25 -54 163 -72 185 -6 7 -62 29 -124 49 l-114 35 0 39 0 39 114 35 c62 20
118 42 124 49 18 22 72 160 72 185 0 13 -24 68 -52 122 -55 104 -57 118 -14
144 14 9 37 0 116 -41 55 -29 110 -53 122 -53 25 0 163 54 185 72 7 6 29 62
49 124 l35 114 39 0 39 0 35 -114z"/>
<path d="M3303 4381 c-105 -39 -180 -107 -231 -211 -25 -50 -27 -65 -27 -170
0 -107 2 -119 29 -175 38 -77 114 -153 191 -191 56 -27 68 -29 175 -29 107 0
119 2 175 29 77 38 153 114 191 191 27 56 29 68 29 175 0 107 -2 119 -29 175
-38 77 -114 153 -191 190 -52 26 -73 30 -160 33 -79 2 -111 -2 -152 -17z m225
-167 c153 -63 191 -267 71 -381 -147 -139 -389 -36 -389 167 0 90 51 169 135
213 39 21 135 21 183 1z"/>
<path d="M4428 4790 c-9 -6 -21 -25 -27 -43 -16 -50 -85 -407 -79 -412 10 -10
152 -35 158 -28 4 5 15 50 25 102 l18 93 25 -58 c13 -33 36 -102 50 -154 23
-86 26 -113 26 -285 1 -204 -7 -259 -60 -407 -36 -98 -72 -168 -138 -268 -31
-46 -55 -84 -54 -85 2 0 28 -22 59 -48 31 -26 61 -47 68 -47 19 0 96 114 154
227 64 127 111 266 132 395 19 120 19 351 0 462 -17 94 -66 260 -96 319 -23
44 -25 43 89 21 45 -9 85 -15 87 -12 10 10 35 152 28 158 -12 11 -373 80 -413
80 -19 0 -43 -5 -52 -10z"/>
<path d="M1835 4000 l-59 -60 49 -50 49 -50 -144 0 c-468 -1 -902 -156 -1284
-460 -87 -69 -286 -267 -286 -285 0 -6 28 -34 63 -62 l62 -51 83 88 c373 400
885 612 1447 601 l49 -1 -44 -45 -44 -45 62 -63 62 -62 130 131 c127 127 130
132 130 174 0 42 -4 47 -127 172 -70 70 -130 128 -133 128 -3 0 -32 -27 -65
-60z"/>
<path d="M1585 3338 c-22 -20 -31 -46 -58 -172 l-33 -150 -67 -17 -67 -17 -97
109 c-54 60 -110 114 -125 120 -36 15 -80 -1 -198 -71 -92 -55 -130 -90 -130
-121 0 -11 21 -84 46 -161 l46 -141 -50 -49 -49 -50 -141 46 c-156 51 -168 53
-200 30 -25 -17 -135 -199 -153 -251 -17 -52 -1 -77 120 -186 l109 -97 -17
-68 -17 -67 -150 -32 c-200 -43 -194 -35 -194 -233 0 -198 -6 -190 194 -233
l150 -32 17 -67 17 -68 -109 -97 c-121 -108 -137 -134 -120 -186 12 -37 113
-211 138 -239 30 -34 65 -31 213 17 l143 47 49 -50 50 -49 -46 -141 c-51 -156
-53 -168 -30 -200 17 -25 199 -135 251 -153 52 -17 77 -1 186 120 l97 109 68
-17 67 -17 32 -150 c43 -200 35 -194 233 -194 198 0 190 -6 233 194 l32 150
67 17 68 17 97 -109 c54 -60 110 -114 125 -120 36 -15 80 1 198 71 92 55 130
90 130 121 0 11 -21 84 -46 161 l-46 141 50 49 49 50 143 -47 c167 -54 186
-54 231 8 35 49 114 191 124 225 12 40 -12 75 -124 175 l-109 97 17 67 17 67
150 33 c200 43 194 35 194 233 0 198 6 190 -194 233 l-150 33 -17 67 -17 67
109 97 c60 54 114 110 120 125 15 36 -1 80 -71 198 -55 92 -90 130 -121 130
-11 0 -84 -21 -161 -46 l-141 -46 -49 50 -50 49 47 143 c54 167 54 186 -8 231
-49 35 -191 114 -225 124 -40 12 -75 -12 -175 -124 l-97 -109 -68 17 -67 17
-32 150 c-43 200 -35 194 -233 194 -140 0 -150 -1 -175 -22z m260 -297 c37
-165 41 -172 134 -190 33 -7 86 -21 117 -31 32 -11 73 -20 92 -20 37 0 53 13
180 154 59 66 63 68 89 57 69 -29 68 -24 18 -180 -34 -109 -43 -146 -35 -165
11 -31 195 -215 226 -226 19 -8 56 1 165 35 156 50 151 51 180 -18 11 -26 9
-30 -57 -89 -141 -127 -154 -143 -154 -180 0 -19 9 -60 20 -92 10 -31 24 -84
31 -117 18 -92 24 -97 190 -133 l144 -33 0 -53 0 -53 -144 -33 c-166 -36 -172
-41 -190 -133 -7 -33 -21 -86 -31 -117 -11 -32 -20 -73 -20 -92 0 -37 13 -53
154 -180 66 -59 68 -63 57 -89 -29 -69 -24 -68 -180 -18 -109 34 -146 43 -165
35 -31 -12 -215 -195 -227 -227 -7 -19 1 -55 37 -164 51 -156 51 -150 -19
-180 -26 -11 -30 -9 -89 57 -127 141 -143 154 -180 154 -19 0 -60 -9 -92 -20
-31 -10 -84 -24 -117 -31 -93 -18 -97 -25 -134 -190 l-32 -144 -53 0 -53 0
-32 144 c-37 165 -41 172 -134 190 -33 7 -86 21 -117 31 -32 11 -73 20 -92 20
-37 0 -53 -13 -180 -154 -59 -66 -63 -68 -89 -57 -69 29 -68 24 -18 180 34
109 43 146 35 165 -11 31 -195 215 -226 226 -19 8 -56 -1 -165 -35 -156 -50
-151 -51 -180 18 -11 26 -9 30 57 89 141 127 154 143 154 180 0 19 -9 60 -20
92 -10 31 -24 84 -31 117 -18 93 -25 97 -190 134 l-144 32 0 53 0 53 144 32
c165 37 172 41 190 134 7 33 21 86 31 117 11 32 20 73 20 92 0 37 -13 53 -154
180 -66 59 -68 63 -57 89 29 69 24 68 180 18 109 -34 146 -43 165 -35 31 11
215 195 226 226 8 19 -1 56 -35 165 -50 156 -51 151 18 180 26 11 30 9 89 -57
127 -141 143 -154 180 -154 19 0 60 9 92 20 31 10 84 25 118 31 90 18 99 31
131 184 16 72 30 136 32 143 3 9 21 12 57 10 l51 -3 32 -144z"/>
<path d="M1545 2619 c-310 -76 -570 -338 -645 -649 -28 -117 -28 -303 0 -420
79 -328 349 -589 682 -656 100 -20 321 -14 413 11 167 45 357 173 462 310 124
161 183 336 183 545 0 155 -23 258 -85 387 -114 234 -335 413 -585 473 -115
27 -311 27 -425 -1z m360 -161 c141 -30 272 -105 372 -212 76 -80 124 -159
160 -261 26 -74 28 -91 28 -225 0 -137 -2 -150 -31 -231 -38 -108 -105 -209
-189 -287 -381 -357 -986 -202 -1163 297 -25 69 -27 89 -27 221 0 134 2 151
28 225 122 344 475 548 822 473z"/>
<path d="M4021 2943 c-12 -10 -34 -54 -50 -97 -23 -65 -33 -81 -57 -91 -26
-10 -37 -8 -101 22 -110 51 -122 48 -220 -50 -98 -98 -101 -110 -50 -220 30
-64 32 -75 22 -101 -10 -24 -26 -34 -91 -57 -111 -40 -114 -46 -114 -189 0
-143 3 -149 114 -189 65 -23 81 -33 91 -57 10 -26 8 -37 -22 -101 -51 -110
-48 -122 50 -220 98 -98 110 -101 220 -50 64 30 75 32 101 22 24 -10 34 -26
57 -91 40 -111 46 -114 189 -114 143 0 149 3 189 114 23 65 33 81 57 91 26 10
37 8 101 -22 110 -51 122 -48 220 50 98 98 101 110 50 220 -30 64 -32 75 -22
101 10 24 26 34 91 57 111 41 114 46 114 191 0 111 -1 120 -23 142 -13 13 -56
34 -94 47 -59 18 -73 28 -85 53 -14 28 -13 35 19 102 51 111 48 123 -50 221
-98 98 -110 101 -220 50 -64 -30 -75 -32 -101 -22 -24 10 -34 26 -57 91 -40
111 -46 114 -189 114 -97 0 -121 -3 -139 -17z m155 -151 c5 -4 23 -41 40 -82
l29 -74 80 -34 c44 -19 89 -36 101 -39 11 -2 53 10 93 28 66 30 73 31 88 16
15 -15 14 -22 -16 -88 -18 -40 -30 -82 -28 -93 11 -45 69 -172 84 -183 9 -7
45 -22 79 -33 59 -20 64 -24 64 -50 0 -26 -5 -30 -64 -50 -34 -11 -70 -26 -79
-33 -14 -10 -67 -124 -84 -180 -3 -10 9 -51 27 -93 30 -69 32 -76 17 -91 -15
-15 -22 -14 -88 16 -40 18 -82 30 -93 28 -45 -11 -172 -69 -183 -84 -7 -9 -22
-45 -33 -79 -19 -57 -24 -64 -48 -64 -24 0 -30 8 -57 77 l-30 77 -80 34 c-114
48 -108 48 -191 12 -69 -30 -76 -32 -91 -17 -15 15 -14 22 16 88 18 40 30 82
28 93 -3 12 -20 57 -39 101 l-34 80 -77 30 c-67 26 -77 33 -77 55 0 22 10 29
77 55 l77 30 34 80 c19 44 36 89 39 101 2 11 -10 53 -28 93 -30 66 -31 73 -16
88 15 15 22 13 91 -17 42 -18 83 -30 93 -27 56 17 170 70 180 84 7 9 22 44 33
79 23 67 40 84 66 66z"/>
<path d="M4032 2459 c-116 -45 -192 -163 -192 -299 0 -130 64 -236 175 -290
72 -36 189 -40 268 -10 262 98 263 501 2 599 -74 28 -180 28 -253 0z m206
-169 c130 -79 74 -280 -78 -280 -152 0 -208 201 -78 280 43 26 113 26 156 0z"/>
</g>
</svg>
